<mxfile host="app.diagrams.net" agent="Mozilla/5.0 (X11; Ubuntu; Linux x86_64; rv:134.0) Gecko/20100101 Firefox/134.0" version="26.0.11">
  <diagram name="Seite-1" id="xeU27EbtqhHBBnQHDd9D">
    <mxGraphModel dx="1370" dy="765" grid="1" gridSize="10" guides="1" tooltips="1" connect="1" arrows="1" fold="1" page="1" pageScale="1" pageWidth="1169" pageHeight="827" math="0" shadow="0">
      <root>
        <mxCell id="0" />
        <mxCell id="1" parent="0" />
        <mxCell id="JVvQ0PYDtXeMyq0miMnN-3" value="" style="rounded=0;whiteSpace=wrap;html=1;fillColor=#eeeeee;strokeColor=#36393d;" parent="1" vertex="1">
          <mxGeometry x="700" y="300" width="20" height="161" as="geometry" />
        </mxCell>
        <mxCell id="JVvQ0PYDtXeMyq0miMnN-4" value="" style="rounded=0;whiteSpace=wrap;html=1;fillColor=#f5f5f5;fontColor=#333333;strokeColor=#666666;" parent="1" vertex="1">
          <mxGeometry x="480" y="300" width="190" height="160" as="geometry" />
        </mxCell>
        <mxCell id="JVvQ0PYDtXeMyq0miMnN-61" value="" style="rounded=0;whiteSpace=wrap;html=1;fillColor=#FF3333;" parent="1" vertex="1">
          <mxGeometry x="480" y="421" width="190" height="29" as="geometry" />
        </mxCell>
        <mxCell id="JVvQ0PYDtXeMyq0miMnN-5" value="&lt;div&gt;...&lt;br&gt;&lt;/div&gt;&lt;div&gt;li&amp;nbsp;&amp;nbsp;&amp;nbsp;&amp;nbsp;&amp;nbsp; a0, 0x1&lt;/div&gt;call&amp;nbsp;&amp;nbsp;&amp;nbsp; fn_a&lt;br&gt;alci&amp;nbsp;&amp;nbsp;&amp;nbsp; sp, 32&lt;br&gt;sw&amp;nbsp;&amp;nbsp;&amp;nbsp;&amp;nbsp;&amp;nbsp; ra, 4(sp)&lt;br&gt;sw&amp;nbsp;&amp;nbsp;&amp;nbsp;&amp;nbsp;&amp;nbsp; s0, 8(sp)&lt;br&gt;li&amp;nbsp;&amp;nbsp;&amp;nbsp;&amp;nbsp;&amp;nbsp; s0, 0x55&lt;br&gt;&lt;div&gt;call&amp;nbsp;&amp;nbsp;&amp;nbsp; fn_b&lt;/div&gt;&lt;div&gt;sw&amp;nbsp;&amp;nbsp;&amp;nbsp;&amp;nbsp;&amp;nbsp; ra, 4(sp)&lt;/div&gt;sw&amp;nbsp;&amp;nbsp;&amp;nbsp;&amp;nbsp;&amp;nbsp; s0, 8(sp)&lt;div&gt;...&lt;/div&gt;&lt;div&gt;&lt;br&gt;&lt;/div&gt;" style="text;html=1;align=left;verticalAlign=middle;whiteSpace=wrap;rounded=0;fontFamily=Courier New;fontSize=11.9;" parent="1" vertex="1">
          <mxGeometry x="498" y="307" width="150" height="167" as="geometry" />
        </mxCell>
        <mxCell id="JVvQ0PYDtXeMyq0miMnN-6" value="" style="rounded=0;whiteSpace=wrap;html=1;fillColor=#eeeeee;strokeColor=#36393d;" parent="1" vertex="1">
          <mxGeometry x="420" y="300" width="20" height="160" as="geometry" />
        </mxCell>
        <mxCell id="JVvQ0PYDtXeMyq0miMnN-7" value="" style="rounded=0;whiteSpace=wrap;html=1;fillColor=#eeeeee;strokeColor=#36393d;" parent="1" vertex="1">
          <mxGeometry x="380" y="300" width="20" height="160" as="geometry" />
        </mxCell>
        <mxCell id="JVvQ0PYDtXeMyq0miMnN-8" value="function" style="text;html=1;align=center;verticalAlign=middle;whiteSpace=wrap;rounded=0;" parent="1" vertex="1">
          <mxGeometry x="680" y="250" width="60" height="30" as="geometry" />
        </mxCell>
        <mxCell id="JVvQ0PYDtXeMyq0miMnN-9" value="&lt;div&gt;sp&lt;/div&gt;" style="text;html=1;align=center;verticalAlign=middle;whiteSpace=wrap;rounded=0;" parent="1" vertex="1">
          <mxGeometry x="415" y="280" width="30" height="20" as="geometry" />
        </mxCell>
        <mxCell id="JVvQ0PYDtXeMyq0miMnN-10" value="&lt;div&gt;ra&lt;/div&gt;" style="text;html=1;align=center;verticalAlign=middle;whiteSpace=wrap;rounded=0;" parent="1" vertex="1">
          <mxGeometry x="375" y="280" width="30" height="20" as="geometry" />
        </mxCell>
        <mxCell id="JVvQ0PYDtXeMyq0miMnN-11" value="&lt;div&gt;colours&lt;/div&gt;" style="text;html=1;align=center;verticalAlign=middle;whiteSpace=wrap;rounded=0;" parent="1" vertex="1">
          <mxGeometry x="380" y="250" width="60" height="30" as="geometry" />
        </mxCell>
        <mxCell id="JVvQ0PYDtXeMyq0miMnN-12" value="" style="rounded=0;whiteSpace=wrap;html=1;fillColor=#eeeeee;strokeColor=#36393d;" parent="1" vertex="1">
          <mxGeometry x="700" y="300" width="20" height="50" as="geometry" />
        </mxCell>
        <mxCell id="JVvQ0PYDtXeMyq0miMnN-13" value="a" style="rounded=0;whiteSpace=wrap;html=1;fillColor=#B3B3B3;strokeColor=#36393d;" parent="1" vertex="1">
          <mxGeometry x="700" y="350" width="20" height="70" as="geometry" />
        </mxCell>
        <mxCell id="JVvQ0PYDtXeMyq0miMnN-14" value="b" style="rounded=0;whiteSpace=wrap;html=1;fillColor=#808080;" parent="1" vertex="1">
          <mxGeometry x="700" y="420" width="20" height="41" as="geometry" />
        </mxCell>
        <mxCell id="JVvQ0PYDtXeMyq0miMnN-16" value="" style="rounded=0;whiteSpace=wrap;html=1;fillColor=#000000;" parent="1" vertex="1">
          <mxGeometry x="420" y="360" width="20" height="100" as="geometry" />
        </mxCell>
        <mxCell id="JVvQ0PYDtXeMyq0miMnN-17" value="" style="rounded=0;whiteSpace=wrap;html=1;fillColor=#000000;" parent="1" vertex="1">
          <mxGeometry x="380" y="350" width="20" height="70" as="geometry" />
        </mxCell>
        <mxCell id="JVvQ0PYDtXeMyq0miMnN-21" value="" style="rounded=0;whiteSpace=wrap;html=1;fillColor=#b1ddf0;strokeColor=#10739e;" parent="1" vertex="1">
          <mxGeometry x="460" y="300" width="20" height="160" as="geometry" />
        </mxCell>
        <mxCell id="JVvQ0PYDtXeMyq0miMnN-27" value="" style="rounded=0;whiteSpace=wrap;html=1;fillColor=#ffe6cc;strokeColor=#d79b00;" parent="1" vertex="1">
          <mxGeometry x="460" y="421" width="20" height="39" as="geometry" />
        </mxCell>
        <mxCell id="JVvQ0PYDtXeMyq0miMnN-28" value="" style="rounded=0;whiteSpace=wrap;html=1;fillColor=#ffe6cc;strokeColor=#d79b00;" parent="1" vertex="1">
          <mxGeometry x="460" y="351" width="20" height="10" as="geometry" />
        </mxCell>
        <mxCell id="JVvQ0PYDtXeMyq0miMnN-33" value="instructions" style="text;html=1;align=center;verticalAlign=middle;whiteSpace=wrap;rounded=0;" parent="1" vertex="1">
          <mxGeometry x="532.5" y="250" width="65" height="30" as="geometry" />
        </mxCell>
        <mxCell id="JVvQ0PYDtXeMyq0miMnN-34" value="state" style="text;html=1;align=center;verticalAlign=middle;whiteSpace=wrap;rounded=0;" parent="1" vertex="1">
          <mxGeometry x="440" y="250" width="60" height="30" as="geometry" />
        </mxCell>
        <mxCell id="JVvQ0PYDtXeMyq0miMnN-59" value="&lt;span class=&quot;box&quot;&gt;&lt;font&gt;â†¯&lt;/font&gt;&lt;/span&gt;" style="text;html=1;align=center;verticalAlign=middle;whiteSpace=wrap;rounded=0;strokeColor=none;labelBorderColor=none;fontColor=#330000;fontSize=24;" parent="1" vertex="1">
          <mxGeometry x="630" y="420.5" width="30" height="30" as="geometry" />
        </mxCell>
      </root>
    </mxGraphModel>
  </diagram>
</mxfile>
